<?xml version="1.0" encoding="UTF-8"?>
<svg width="80px" height="80px" viewBox="0 0 80 80" version="1.1" xmlns="http://www.w3.org/2000/svg" xmlns:xlink="http://www.w3.org/1999/xlink">
    <!-- Generator: Sketch 43.1 (39012) - http://www.bohemiancoding.com/sketch -->
    <title>Artboard</title>
    <desc>Created with Sketch.</desc>
    <defs/>
    <g id="Page-1" stroke="none" stroke-width="1" fill="none" fill-rule="evenodd">
        <g id="Artboard" fill-rule="nonzero">
            <g id="Group" transform="translate(0.000000, 2.000000)">
                <path d="M2.94027302,70.6038095 L1.47013968,70.6038095 C0.653396825,70.6038095 0,69.9269841 0,69.08 C0,68.4031746 0.653396825,67.7257143 1.47013968,67.7257143 L3.26697143,67.7257143 C2.94027302,67.2177778 2.94027302,66.5403175 3.26697143,66.032381 L4.90045714,64.0006349 C6.37060317,62.1382857 8.00406349,60.1065397 9.31085714,58.0747302 L28.5860317,26.751619 C30.056127,24.5505397 31.5262857,22.3494603 32.9964444,20.148381 C37.4068571,13.2064762 41.6539048,6.6032381 46.7177143,0.507942222 C46.8810794,0.169314286 47.3711111,0 47.8611429,0 C48.3511746,0 48.8412698,0.338628571 49.0045714,0.846571429 C50.4747302,3.89422857 51.7815238,7.1111746 52.7615873,9.4815873 C53.2516825,10.4974603 53.5783492,11.3440635 53.7417143,11.852 C54.3951111,13.5451429 55.0485079,14.899619 55.5385397,16.2541587 C56.6819683,18.9631746 57.6620952,21.6721905 59.7855873,25.3971429 L72.5269841,52.1487619 C74.16,56.0429841 76.9371429,61.6303492 78.7339683,65.1860317 C79.224127,66.032381 79.5511111,66.8793651 79.8774603,67.3873016 C80.0406349,67.8952381 80.0406349,68.4031746 79.8774603,68.9111111 C79.5511111,69.4190476 79.224127,69.5879365 78.7339683,69.5879365 C73.8336508,69.5879365 69.0965079,69.7574603 64.5225397,69.9269841 C59.9489524,70.095873 55.211873,70.2653968 50.3113651,70.2653968 L32.6697143,70.4349206 C26.6258413,70.2653968 20.091873,70.4349206 13.8846349,70.4349206 C10.127619,70.6038095 6.53396825,70.6038095 2.94027302,70.6038095 Z M47.3711111,4.23285714 C43.1240635,9.82019048 39.2036825,15.5768889 35.2833016,21.8415238 C33.8131429,24.0426032 32.5064127,26.2436825 31.036254,28.4447619 L11.5977778,59.767873 C10.127619,61.9689524 8.65746032,64.0006349 7.024,65.8634921 L5.7172,67.5561905 L13.5579683,67.5561905 C19.9285079,67.5561905 26.4624762,67.3873016 32.3430476,67.5561905 L49.9846984,67.3873016 C54.8851429,67.3873016 59.6222857,67.2177778 64.1961905,67.048254 C68.1161905,66.8793651 72.0368254,66.8793651 76.1206349,66.7098413 C76.1206349,66.7098413 76.1206349,66.7098413 76.1206349,66.5403175 C74.3238095,62.8155556 71.3834921,57.3975238 69.7498413,53.3339683 L57.172,26.9209524 C55.0485079,23.0267302 54.068381,20.3177143 52.9249524,17.4393651 C52.4349206,16.0848254 51.7815238,14.7303492 51.128127,13.0372063 C50.8014603,12.3599365 50.4747302,11.5133333 50.1480635,10.4974603 C49.3313016,8.80431746 48.5145397,6.6032381 47.3711111,4.23285714 Z" id="Shape" fill="#FF7A64"/>
                <path d="M75.4680635,42.6662222 C75.4680635,40.9730794 75.1417143,39.4492698 74.487746,38.0947302 C71.8744762,31.9994349 66.3206349,28.7824635 59.7866667,29.7983498 C58.6432381,29.9676641 57.6631111,30.3062921 56.5196825,30.6449206 C56.1930159,30.1369784 55.7029841,29.9676648 54.8862222,29.9676648 L50.9658413,29.9676648 C50.4758095,29.9676648 50.1490794,30.3062921 49.9857778,30.6449206 C49.4956825,32.1687492 44.431873,46.3911111 42.7984127,50.7933333 C42.471746,51.639873 41.328254,54.0102857 38.7146667,53.5023492 C38.0613333,53.3330159 37.5712381,52.9944127 37.2445714,52.4864762 C36.9178413,51.9784762 36.7545397,51.3012698 36.9178413,50.7933333 L36.9178413,50.624 C37.0812063,50.1160635 37.2445714,49.4387937 37.4079365,48.7615238 L43.6151746,31.6608063 C43.7784762,31.3221778 43.6151746,30.9835492 43.4518095,30.6449206 C43.2884444,30.3062921 42.9617778,30.1369765 42.6350476,30.1369765 L38.0612698,30.1369765 C37.0812063,30.1369765 36.2644444,30.6449206 35.9377778,31.6608063 C34.9576508,34.3698349 33.9775873,37.0788571 33.1608254,39.787873 C32.6707937,41.1424127 32.1807619,42.6662222 31.6907302,44.0207619 C31.2006349,45.7139048 30.5472381,47.5763175 29.8938413,49.2694603 C29.4038095,50.4546667 28.9137778,51.639873 27.9337143,52.4864762 C26.6269206,53.671619 24.8300317,54.0102857 22.8699048,53.8409524 C22.0531429,53.671619 21.399746,53.3330159 20.9097143,52.4864762 C20.419619,51.639873 20.2563175,50.7933333 20.2563175,49.608127 C20.419619,48.2535873 20.7463492,46.8991111 21.236381,45.5445714 C22.3798095,42.4968889 24.5033651,36.4015873 26.1368254,31.9994349 C26.3001905,31.6608063 26.3001905,31.3221778 25.9735238,30.9835492 C25.8101587,30.6449206 25.4834286,30.4756063 25.1567619,30.4756063 L24.6667302,30.4756063 L20.9097143,30.4756063 C20.419619,30.4756063 19.9295873,30.6449206 19.4395556,30.8142349 C18.4594286,31.4914921 17.316,32.6766921 15.8459048,34.0312063 C13.8856952,35.8936571 11.4354667,38.2640635 9.1485854,39.9572063 C8.82188825,40.1265397 8.65853999,40.4651429 8.65853999,40.803746 C8.65853999,41.1424127 8.82188825,41.4810159 9.1485854,41.6503492 C9.47528254,41.8196825 9.63862857,41.8196825 10.1286794,41.8196825 L10.2920254,41.8196825 C10.9454222,41.6503492 12.4155619,41.3116825 15.6825397,40.4651429 C14.7024381,42.8355556 13.8856952,45.5445714 13.3956508,48.2535873 C12.742254,51.639873 13.5590032,54.8568254 15.6825397,57.5659048 C19.1128254,61.7987302 24.6667302,61.9680635 28.423746,60.2749206 C29.8938413,59.5976508 30.8739683,58.5817778 31.8540317,57.7351746 C33.6508571,60.1055873 36.7545397,61.1214603 39.3680635,60.952127 C39.2047619,61.6293968 38.8780317,62.1373333 38.7146667,62.9839365 L38.388,63.8304762 C37.2445714,67.0474921 35.7744127,71.1109841 34.9576508,73.3120635 C34.6309841,73.9893333 34.7943492,74.8359365 35.1210159,75.343873 C35.447746,75.8518095 36.1011429,76.1904127 36.9178413,76.1904127 L40.6748571,76.1904127 C41.1649524,76.1904127 41.491619,75.8518095 41.6549841,75.5131429 C42.308381,73.6507302 43.1250794,71.1109841 44.1052063,68.4019683 L45.0852698,65.6929524 C46.0653968,62.8146032 47.0454603,60.2749206 47.3721905,59.0897143 L48.352254,56.3806984 C48.8422857,56.8886349 49.1690159,57.3965714 49.6590476,57.7351746 C52.9260317,60.4441905 56.5196825,61.6293968 60.6034286,60.7828571 C64.1970794,60.1055873 67.1373333,58.7510476 69.587619,56.3806984 C73.6712381,52.4864762 75.6312381,47.9149841 75.4680635,42.6662222 Z M67.6274286,44.0207619 C67.1373968,47.5763175 65.503873,50.2853333 62.8902857,52.1478095 C61.4201905,53.1636825 59.9500317,53.5023492 58.3165079,53.5023492 C55.8662857,53.5023492 53.7427937,51.8092063 52.9260317,49.4387937 C52.7626667,49.1001905 52.7626667,48.5921905 52.5993651,48.084254 L52.5993651,47.5763175 L52.5993651,47.4070476 C52.7626667,44.8673016 53.5794286,42.4968889 55.2128889,40.6344762 C56.8464127,38.6026667 58.9699048,37.4174603 61.7468571,37.2481905 L62.0735873,37.2481905 C64.3604444,37.2481905 66.1572698,38.4333968 67.1373333,40.6344762 C67.4640635,41.8196825 67.6274286,43.0048254 67.6274286,44.0207619 Z" id="Shape" fill="#FFFFFF"/>
            </g>
        </g>
    </g>
</svg>