<svg enable-background="new 0 0 48 48" viewBox="0 0 48 48" xmlns="http://www.w3.org/2000/svg"><path d="m43.2 31.1v4.9c0 3.9-8.6 7.1-19.1 7.1s-19.2-3.2-19.2-7.1v-4.9z" fill="#debb7e"/><path d="m4.9 33.3c0 3.9 8.6 7.1 19.1 7.1s19.1-3.2 19.1-7.1v-2.2h-38.2z" fill="#b89558"/><g stroke="#45413c" stroke-linecap="round" stroke-linejoin="round" stroke-miterlimit="10"><path d="m43.2 31.1v4.9c0 3.9-8.6 7.1-19.1 7.1s-19.2-3.2-19.2-7.1v-4.9z" fill="none"/><path d="m24.1 37.7c23.6 0 23-7.7 20.2-12-2.7-3.8-9.1-7.1-20.2-7.1s-17.5 3.2-20.2 7c-2.8 4.4-3.4 12.1 20.2 12.1z" fill="#bf8256"/><path d="m43.2 23.4s3.3 1.1 3.3 4.4-4.4.5-6 1.6-.4 3.6-2.7 4.4c-3.3 1.1-5-2.1-7.1-1.6-2.7.5-1.6 3.3-6.6 3.3s-3.8-2.7-6.6-3.3c-2.1-.4-3.8 2.7-7.1 1.6-2.3-.8-1.1-3.3-2.7-4.4s-6 1.6-6-1.6 3.3-4.4 3.3-4.4z" fill="#5dfb3c"/><path d="m42.7 27.3h-2.2-1.1-1.1-1.6-3.3v2.7c0 1.2 1 2.2 2.2 2.2h1.1v2.5c0 1.1.9 1.9 1.9 1.9 1.1 0 1.9-.9 1.9-1.9v-4.1c1.2 0 2.2-1 2.2-2.2z" fill="#fecf00"/><path d="m24.1 30c23.6 0 23-7.7 20.2-12-2.7-3.8-9.1-7.1-20.2-7.1s-17.5 3.2-20.2 7.1c-2.8 4.3-3.4 12 20.2 12z" fill="#bf8256"/><path d="m43.2 15.8s3.3 1.1 3.3 4.4-4.4.5-6 1.6-.4 3.6-2.7 4.4c-3.3 1.1-5-2.1-7.1-1.6-2.7.5-1.6 3.3-6.6 3.3s-3.8-2.7-6.6-3.3c-2.1-.4-3.8 2.7-7.1 1.6-2.3-.8-1.1-3.3-2.7-4.4s-6 1.6-6-1.6 3.3-4.4 3.3-4.4 38.2 0 38.2 0z" fill="#5dfb3c"/><path d="m7.1 18s-1.8 3.8 2.2 4.9c3.8 1.1 7.7-2.2 10.9-2.2s6.3 4.8 10.4 3.8c4.4-1.1 2.2-3.3 4.9-4.4s12 2.7 6.6-3.8z" fill="#e02643"/><path d="m26.8 21.3h-2.2-1.1-1.1-1.6-3.3v2.7c0 1.2 1 2.2 2.2 2.2h1.1v2.5c0 1.1.9 1.9 1.9 1.9s1.9-.9 1.9-1.9v-4.1c1.2 0 2.2-1 2.2-2.2z" fill="#fecf00"/></g><path d="m43.2 15.2c0 3.9-8.6 7.1-19.1 7.1s-19.2-3.1-19.2-7.1c0 0 1.1-12.6 19.1-12.6s19.2 12.6 19.2 12.6z" fill="#f0d5a8"/><path d="m24.1 18.5c-9 0-16.6-2.3-18.6-5.5-.4 1.3-.5 2.2-.5 2.2 0 3.9 8.6 7.1 19.1 7.1s19.1-3.2 19.1-7.1c0 0-.1-.9-.5-2.2-2 3.2-9.6 5.5-18.6 5.5z" fill="#debb7e"/><path d="m43.2 15.2c0 3.9-8.6 7.1-19.1 7.1s-19.2-3.1-19.2-7.1c0 0 1.1-12.6 19.1-12.6s19.2 12.6 19.2 12.6z" fill="none" stroke="#45413c" stroke-linecap="round" stroke-linejoin="round" stroke-miterlimit="10"/><path d="m12.9 8.5c-.6.2-.9.8-.8 1.3.2.6.8.9 1.3.8l1.1-.3c.6-.2.9-.8.8-1.3-.2-.6-.8-.9-1.3-.8z" fill="#debb7e" stroke="#45413c" stroke-linecap="round" stroke-linejoin="round" stroke-miterlimit="10"/><path d="m19.3 11.4c-.3.5 0 1.2.5 1.4.5.3 1.2 0 1.4-.5l.5-1c.3-.5 0-1.2-.5-1.4-.5-.3-1.2 0-1.4.5z" fill="#debb7e" stroke="#45413c" stroke-linecap="round" stroke-linejoin="round" stroke-miterlimit="10"/><path d="m35.3 8.5c.6.2.9.8.8 1.3-.2.6-.8.9-1.3.8l-1.1-.3c-.6-.2-.9-.8-.8-1.3.2-.6.8-.9 1.3-.8z" fill="#debb7e" stroke="#45413c" stroke-linecap="round" stroke-linejoin="round" stroke-miterlimit="10"/><path d="m28.9 11.4c.3.5 0 1.2-.5 1.4-.5.3-1.2 0-1.4-.5l-.5-1c-.3-.5 0-1.2.5-1.4.5-.3 1.2 0 1.4.5z" fill="#debb7e" stroke="#45413c" stroke-linecap="round" stroke-linejoin="round" stroke-miterlimit="10"/></svg>